# xmcd
# 
# Track frame offsets:
#     150
#     23013
#     39168
#     53804
#     71674
# 
# Disc length: 1232
# 
# Revision: 2
# Processed by: cddbd v1.5.2PL0 Copyright (c) Steve Scherf et al.
# Submitted via: fre:ac v1.0.17
# 
DISCID=3604ce05
DTITLE=Warratahs - 25 Year Collection EP
DYEAR=2014
DGENRE=Country
TTITLE0=Kupe's Tears
TTITLE1=Hands of my Heart
TTITLE2=Mindreaders Blues
TTITLE3=Good Combinations
TTITLE4=Love Song (I'm Addicted) (Live)
EXTD=
EXTT0=
EXTT1=
EXTT2=
EXTT3=
EXTT4=
PLAYORDER=
